<svg width="1024" height="1024" viewBox="0 0 1024 1024" fill="none" xmlns="http://www.w3.org/2000/svg">
<rect width="1024" height="1024" rx="216" fill="#519ABA"/>
<ellipse cx="418.366" cy="206.724" rx="47.5413" ry="42.9031" fill="#F7CAC9"/>
<ellipse cx="418.366" cy="206.724" rx="47.5413" ry="42.9031" fill="#F7CAC9"/>
<ellipse cx="413.728" cy="755.188" rx="42.9031" ry="39.4244" fill="#F7CAC9"/>
<path d="M571.426 757.507C571.426 767.753 541.713 812.005 506.492 812.005C471.27 812.005 442.717 778.189 442.717 767.943C458.95 738.954 458.515 762.145 493.737 762.145C528.958 762.145 558.671 742.433 571.426 757.507Z" fill="#F7CAC9"/>
<ellipse cx="601.574" cy="755.188" rx="42.9031" ry="39.4244" fill="#F7CAC9"/>
<ellipse cx="334.879" cy="696.051" rx="49.8603" ry="61.4558" fill="#F7CAC9"/>
<ellipse cx="680.423" cy="696.051" rx="49.8603" ry="61.4558" fill="#F7CAC9"/>
<ellipse cx="868.269" cy="511.684" rx="54.4985" ry="46.3817" fill="#F7CAC9"/>
<ellipse cx="883.343" cy="597.49" rx="57.9771" ry="48.7008" fill="#F7CAC9"/>
<ellipse cx="857.833" cy="674.02" rx="53.339" ry="51.0199" fill="#F7CAC9"/>
<ellipse cx="772.027" cy="662.424" rx="41.7435" ry="53.339" fill="#F7CAC9"/>
<ellipse cx="746.517" cy="594.012" rx="60.2962" ry="52.1794" fill="#F7CAC9"/>
<ellipse cx="746.517" cy="512.844" rx="60.2962" ry="56.8176" fill="#F7CAC9"/>
<ellipse cx="806.813" cy="465.303" rx="48.7008" ry="46.3817" fill="#F7CAC9"/>
<ellipse cx="265.307" cy="514.003" rx="63.7748" ry="55.6581" fill="#F7CAC9"/>
<ellipse cx="265.307" cy="591.692" rx="63.7748" ry="54.4985" fill="#F7CAC9"/>
<ellipse cx="230.52" cy="667.063" rx="54.4985" ry="57.9771" fill="#F7CAC9"/>
<ellipse cx="148.193" cy="674.02" rx="53.339" ry="51.0199" fill="#F7CAC9"/>
<ellipse cx="120.364" cy="597.49" rx="57.9771" ry="48.7008" fill="#F7CAC9"/>
<ellipse cx="142.395" cy="515.162" rx="59.1367" ry="56.8176" fill="#F7CAC9"/>
<ellipse cx="201.532" cy="459.504" rx="57.9771" ry="52.1794" fill="#F7CAC9"/>
<ellipse cx="758.112" cy="391.091" rx="55.6581" ry="48.7008" fill="#F7CAC9"/>
<ellipse cx="245.595" cy="391.091" rx="55.6581" ry="48.7008" fill="#F7CAC9"/>
<ellipse cx="716.369" cy="315.721" rx="62.6153" ry="49.8603" fill="#F7CAC9"/>
<ellipse cx="659.551" cy="249.627" rx="56.8176" ry="44.0626" fill="#F7CAC9"/>
<ellipse cx="588.819" cy="206.724" rx="51.0199" ry="42.9031" fill="#F7CAC9"/>
<ellipse cx="504.172" cy="192.81" rx="47.5413" ry="42.9031" fill="#F7CAC9"/>
<ellipse cx="286.179" cy="315.721" rx="56.8176" ry="49.8603" fill="#F7CAC9"/>
<ellipse cx="342.996" cy="249.627" rx="55.6581" ry="44.0626" fill="#F7CAC9"/>
<ellipse cx="512.289" cy="487.333" rx="292.205" ry="281.769" fill="#F7CAC9"/>
<ellipse cx="398.654" cy="524.439" rx="34.7863" ry="45.2222" fill="#519ABA"/>
<ellipse cx="609.691" cy="524.439" rx="34.7863" ry="45.2222" fill="#519ABA"/>
<path d="M455.298 617.902C444.527 606.804 452.391 588.214 467.856 588.214H542.055C558.094 588.214 565.684 607.992 553.762 618.721L542.726 628.654C541.764 629.52 540.9 630.49 540.152 631.546L523.703 654.769C522.298 656.752 521.379 659.039 521.021 661.443C518.76 676.628 498.166 679.634 491.658 665.73L488.751 659.52C488.211 658.367 487.548 657.277 486.772 656.269L464.748 627.638L455.298 617.902Z" fill="#519ABA"/>
<path d="M554.033 707.647C554.033 732.622 531.191 752.869 503.013 752.869C474.836 752.869 451.993 732.622 451.993 707.647C458.95 626.479 474.836 729.678 503.013 729.678C531.191 729.678 554.033 626.479 554.033 707.647Z" fill="#519ABA"/>
<path d="M515.117 652.011C515.385 680.775 491.874 704.314 462.602 704.587C433.331 704.86 409.096 682.767 409.09 651.989C435.76 604.448 429.962 678.658 462.602 678.658C491.874 678.385 502.852 620.06 515.117 652.011Z" fill="#519ABA"/>
<path d="M599.255 647.35C599.523 676.114 574.351 703.673 545.079 703.946C515.808 704.219 491.573 682.126 491.567 651.348C518.237 603.806 512.439 678.017 545.079 678.017C574.351 677.744 567.948 612.564 599.255 647.35Z" fill="#519ABA"/>
<ellipse cx="201.532" cy="576.618" rx="69.5726" ry="97.4016" fill="#F7CAC9"/>
<ellipse cx="804.494" cy="573.139" rx="88.1252" ry="121.752" fill="#F7CAC9"/>
</svg>
